<svg xmlns="http://www.w3.org/2000/svg" xmlns:xlink="http://www.w3.org/1999/xlink" version="1.1" width="566.929pt" height="566.929pt" viewBox="0 0 566.929 566.929">
<defs>
<clipPath id="clip_0">
<path transform="matrix(1,0,0,-1,0,566.929)" d="M0 566.929H566.929V0H0Z"/>
</clipPath>
</defs>
<g id="layer_1" data-name="">
<g clip-path="url(#clip_0)">
<path transform="matrix(1,0,0,-1,363.2352,220.8753)" d="M0 0V-.007L-.018-.034C-5.447-1.648-11.769-2.571-18.518-2.571H-18.732C-25.451-2.557-31.735-1.62-37.133 0H-37.464L-75.762 11.927C-75.762 11.927-51.008 1.131-42.131-6.088-35.044-11.851-32.591-17.985-31.881-20.24L-31.869-20.283V-20.276L-31.631-21.145V-21.138L-18.732-67.943-5.833-21.145-5.592-20.276C-4.895-18.049-2.455-11.879 4.667-6.088 13.547 1.131 38.301 11.927 38.301 11.927Z" fill="#575756"/>
<path transform="matrix(1,0,0,-1,344.503,215.15973)" d="M0 0C8.273 0 14.988 6.708 14.988 14.982 14.988 23.261 8.273 29.97 0 29.97-8.276 29.97-14.981 23.261-14.981 14.982-14.981 6.708-8.276 0 0 0" fill="#575756"/>
<path transform="matrix(1,0,0,-1,268.2522,220.8753)" d="M0 0V-.007L-.021-.034C-5.44-1.648-11.769-2.571-18.518-2.571H-18.728C-25.447-2.557-31.738-1.62-37.133 0H-37.46L-75.76 11.927C-75.76 11.927-51.015 1.131-42.131-6.088-35.044-11.851-32.587-17.985-31.878-20.24L-31.866-20.283V-20.276L-31.631-21.145V-21.138L-18.728-67.943-5.833-21.145-5.591-20.276-2.909-10.542-1.689-6.129-5.591-20.276C-4.899-18.049-2.454-11.879 4.671-6.088 13.554 1.131 38.298 11.927 38.298 11.927Z" fill="#575756"/>
<path transform="matrix(1,0,0,-1,249.5239,215.15973)" d="M0 0C8.273 0 14.984 6.708 14.984 14.982 14.984 23.261 8.273 29.97 0 29.97-8.277 29.97-14.985 23.261-14.985 14.982-14.985 6.708-8.277 0 0 0" fill="#575756"/>
<path transform="matrix(1,0,0,-1,310.7313,228.5209)" d="M0 0C0 0 2.017 9.797 13.116 18.821 24.217 27.846 55.155 41.345 55.155 41.345L7.28 26.432Z" fill="#1c75bc"/>
<path transform="matrix(1,0,0,-1,278.4764,228.5209)" d="M0 0C0 0-2.024 9.797-13.127 18.821-24.227 27.846-55.168 41.345-55.168 41.345L-7.287 26.432Z" fill="#fbb040"/>
<path transform="matrix(1,0,0,-1,294.6017,205.30783)" d="M0 0V-81.704L-19.783-9.962-23.406 3.178-23.413 3.219-23.396 3.178C-16.608 1.158-8.704 0-.268 0Z" fill="#fbb040"/>
<path transform="matrix(1,0,0,-1,318.0117,202.0885)" d="M0 0-3.63-13.182-23.41-84.924V-3.219C-15.013-3.192-7.157-2.02-.411 0Z" fill="#1c75bc"/>
<path transform="matrix(1,0,0,-1,294.6017,153.02121)" d="M0 0V-37.464C-10.348-37.464-18.735-29.08-18.735-18.732-18.735-8.39-10.348 0 0 0" fill="#fbb040"/>
<path transform="matrix(1,0,0,-1,313.3339,171.75342)" d="M0 0C0-10.348-8.39-18.731-18.732-18.731V18.732C-8.39 18.732 0 10.342 0 0" fill="#1c75bc"/>
<path transform="matrix(1,0,0,-1,33.7636,353.0069)" d="M0 0V70.139H11.746V9.755H64.83V0Z" fill="#575756"/>
<path transform="matrix(1,0,0,-1,104.0483,353.0069)" d="M0 0V57.597H57.996V49.037H10.883V34.24H39.283V25.68H10.883V8.428H58.527V0Z" fill="#575756"/>
<path transform="matrix(1,0,0,-1,194.1169,331.24214)" d="M0 0H30.59L15.262 27.406ZM-22.827-21.765 10.484 35.832H20.438L54.545-21.765H42.733L35.235-8.294H-4.579L-11.944-21.765Z" fill="#575756"/>
<path transform="matrix(1,0,0,-1,288.7538,303.9695)" d="M0 0H-21.101V-40.345H0C9.378-40.345 16.047-38.764 20.006-35.6 23.966-32.438 25.946-27.229 25.946-19.973 25.946-12.895 23.943-7.796 19.941-4.678 15.936-1.56 9.29 0 0 0M1.194 8.56C6.68 8.56 11.29 8.195 15.029 7.465 18.768 6.735 21.853 5.617 24.286 4.114 28.223 1.636 31.297-1.736 33.511-6.005 35.723-10.275 36.828-14.974 36.828-20.106 36.828-29.794 33.885-37.038 28.002-41.837 22.119-46.638 13.182-49.037 1.194-49.037H-31.984V8.56Z" fill="#575756"/>
<path transform="matrix(1,0,0,-1,337.8053,353.0069)" d="M0 0V57.597H57.995V49.037H10.882V34.24H39.283V25.68H10.882V8.428H58.526V0Z" fill="#575756"/>
<path transform="matrix(1,0,0,-1,444.718,303.8366)" d="M0 0H-30.657V-18.58H0C2.432-18.58 4.07-18.181 4.911-17.385 5.75-16.589 6.171-15.041 6.171-12.74V-5.839C6.171-3.716 5.729-2.213 4.845-1.327 3.958-.443 2.345 0 0 0M-41.539-49.17V8.427H4.778C9.069 8.427 12.154 7.553 14.035 5.806 15.915 4.059 16.855 1.216 16.855-2.721V-15.594C16.855-19.487 15.915-22.295 14.035-24.022 12.154-25.747 9.069-26.609 4.778-26.609H-2.852L22.561-49.17H8.029L-14.93-26.609H-30.657V-49.17Z" fill="#575756"/>
<path transform="matrix(1,0,0,-1,523.6959,303.9695)" d="M0 0H-40.411V-14.93H-3.45C1.946-14.93 5.628-15.871 7.597-17.75 9.565-19.631 10.551-23.224 10.551-28.533V-35.434C10.551-40.742 9.588-44.337 7.663-46.216 5.74-48.098 2.034-49.037-3.45-49.037H-38.487C-43.973-49.037-47.701-48.098-49.668-46.216-51.637-44.337-52.621-40.742-52.621-35.434V-33.841L-42.668-31.784V-40.345H.796V-24.153H-36.297C-41.739-24.153-45.433-23.214-47.379-21.333-49.326-19.454-50.299-15.859-50.299-10.551V-5.109C-50.299 .154-49.326 3.749-47.379 5.673-45.433 7.598-41.739 8.56-36.297 8.56H-4.248C1.105 8.56 4.798 7.631 6.835 5.774 8.868 3.916 9.886 .641 9.886-4.047V-5.441L0-7.564Z" fill="#575756"/>
<path transform="matrix(1,0,0,-1,361.6736,189.9902)" d="M0 0-.532 1.713 47.473 16.598 48.005 14.885Z" fill="#414042"/>
<path transform="matrix(1,0,0,-1,227.4206,189.4913)" d="M0 0-46.573 18.877-45.959 20.391 .614 1.515Z" fill="#414042"/>
<path transform="matrix(1,0,0,-1,428.8615,240.3724)" d="M0 0C-3.285-1.055-6.563-2.11-9.841-3.164-25.212 15.981-15.553 43.186-30.924 62.331-27.649 63.386-24.364 64.441-21.089 65.496-1.168 47.812-19.918 17.684 0 0" fill="#e63132"/>
<path transform="matrix(1,0,0,-1,393.7558,251.67203)" d="M0 0C-2.62-.841-5.233-1.682-7.853-2.53-27.763 15.154-9.024 45.289-28.935 62.966-25.354 64.117-21.776 65.275-18.194 66.427-2.823 47.281-15.375 19.145 0 0" fill="#e63132"/>
<path transform="matrix(1,0,0,-1,419.0203,243.53672)" d="M0 0C-8.421-2.709-16.84-5.426-25.265-8.135-40.639 11.01-28.088 39.146-43.458 58.292-36.002 60.691-28.546 63.097-21.083 65.496-5.712 46.35-15.371 19.145 0 0" fill="#ffffff"/>
<path transform="matrix(1,0,0,-1,406.1102,210.31992)" d="M0 0C-.524 .179-1.348 .765-1.806 .813-2.254 .862-2.847 1.289-3.089 1.544-3.329 1.8-3.481 1.448-3.144 1.206-2.805 .951-2.73 .676-2.447 .545-2.168 .434-2.281 .082-2.516 .31-2.75 .524-3.03 .551-3.25 .613-3.464 .669-3.571 .703-3.664 .972-3.757 1.241-3.916 1.461-4.295 1.551-4.674 1.634-5.122 1.758-5.336 1.8-5.55 1.841-5.656 1.717-5.363 1.538-5.06 1.358-4.791 1.13-4.991 .924-5.198 .717-5.308 .689-5.57 .979-6.136 1.586-6.398 1.737-6.77 1.751-7.153 1.772-7.232 1.668-7.542 2.062-7.86 2.454-8.707 2.992-9.269 3.344-9.838 3.682-9.776 3.406-9.631 3.047-9.421 2.489-8.755 1.916-8.824 1.489-9.031 1.31-9.297 1.075-9.469 .834-10.61 1.11-11.014 1.096-11.223 1.689-11.43 2.296-12.271 2.447-12.713 2.606-13.158 2.778-13.575 2.909-13.809 3.158-14.023 3.371-14.147 3.392-14.206 3.158-14.254 2.923-13.919 2.834-13.957 2.627-13.995 2.406-13.919 2.289-13.609 2.082-13.305 1.868-12.927 1.668-12.709 1.234-12.94 .924-13.058 .765-13.12 .469-13.933 .676-14.671 1.151-15.064 1.634-15.471 2.117-15.75 2.123-16.459 2.33-17.18 2.537-17.36 2.461-17.504 2.861-17.635 3.275-17.746 3.219-17.856 2.944-17.969 2.668-17.832 2.53-17.808 2.192-17.784 1.841-17.725 1.406-17.084 1.158-16.429 .917-15.209 .193-15.016-.697-14.919-1.124-14.919-1.434-15.615-1.124-16.312-.813-16.946-.234-17.208 .207-17.725 1.075-18.284 1.344-18.359 1.613-18.449 1.889-18.742 2.075-18.897 1.565-19.048 1.062-19.076 .896-18.676 .517-18.291 .124-17.635-.51-17.449-.779-17.257-1.048-17.036-1.227-17.036-1.462-17.029-1.689-16.904-1.834-16.646-2.013-16.398-2.193-16.257-2.53-15.836-2.723-15.35-2.951-15.553-3.42-15.702-3.723-15.843-4.026-16.581-4.771-17.322-4.543-18.056-4.33-18.835-4.075-19.207-4.033-19.572-3.992-19.621-3.909-19.745-3.764-20.166-3.289-20.745-2.854-20.966-2.737-21.172-2.627-21.207-2.703-21.183-2.944-21.151-3.185-21.096-3.199-20.824-3.351-20.562-3.496-20.173-3.647-20.028-4.164-19.952-4.447-19.704-4.606-19.342-4.757-18.98-4.902-18.555-5.329-18.538-5.612-18.511-5.881-18.421-5.929-18.249-6.039-18.077-6.15-17.98-6.253-18.132-6.556-18.277-6.86-18.17-7.039-17.925-7.232-17.694-7.418-17.67-7.694-17.822-7.811-17.969-7.936-18.125-8.018-18.218-8.287-18.325-8.556-18.601-9.486-18.666-9.783-18.742-10.079-18.408-10.149-18.277-9.9-18.152-9.659-18.021-9.514-17.863-9.486-17.69-9.466-17.587-9.59-17.511-10.025-17.415-10.714-17.642-11.817-17.774-12.231-17.904-12.637-18.007-13.017-17.911-13.286-17.818-13.547-17.711-13.616-17.539-13.292-17.367-12.961-17.483-12.665-17.257-12.479-16.87-12.141-17.305-11.92-16.911-11.603-16.629-11.376-16.642-11.19-16.733-10.983-16.829-10.783-16.69-10.424-16.411-10.121-15.436-9.038-14.416-8.508-13.54-8.473-12.647-8.445-12.196-9.025-12.413-9.521-12.63-10.017-12.695-10.541-12.61-10.728-12.524-10.921-12.461-11.079-12.548-11.396-12.634-11.714-12.603-12.19-12.168-12.644-11.74-13.099-11.879-13.354-11.782-13.699-11.699-13.995-11.644-14.361-11.796-14.671-11.937-14.967-11.975-15.368-11.899-15.926-11.813-16.491-11.538-16.794-11.389-16.27-11.238-15.753-11.189-15.333-10.979-15.092-10.776-14.851-10.803-14.609-10.879-14.382-10.962-14.161-10.899-13.734-10.637-13.306-10.379-12.885-10.389-12.623-10.507-12.396-10.631-12.168-10.631-11.865-10.452-11.617-10.052-11.748-9.373-11.796-9.12-11.962-9.011-12.231-9.021-12.486-9.145-12.734-9.272-12.975-9.156-13.223-9.086-13.402-9.021-13.575-9.038-13.871-9.107-14.065-9.173-14.251-9.086-14.492-8.914-14.685-8.735-14.878-8.603-14.781-8.507-14.45-8.411-14.113-8.342-13.919-8.201-13.775-8.059-13.616-7.997-13.52-8.115-13.182-8.231-12.858-8.094-12.63-7.849-12.272-7.305-11.445-7.384-11.038-7.57-10.679-7.756-10.328-7.956-9.969-7.542-9.493-7.197-9.817-7.601-10.293-6.99-10.652-6.677-10.852-6.563-11.003-6.584-11.389-6.611-11.769-6.439-12.141-6.315-12.224-6.191-12.293-6.005-12.375-5.932-12.541-5.853-12.699-5.608-12.596-5.716-12.361-5.932-11.913-5.625-11.727-5.88-11.307-6.122-10.886-6.094-10.693-5.949-10.328-5.798-9.955-5.684-9.645-6.118-8.839-5.795-8.776-5.466-8.645-5.226-9.038-5.35-9.431-5.212-9.714-5.115-9.976-5.036-10.231-4.736-11.1-4.702-11.383-4.668-11.651-4.512-11.666-4.398-11.203-4.285-10.748-4.374-10.162-4.422-9.969-4.474-9.769-4.343-9.632-4.095-9.404-3.836-9.183-3.73-8.728-3.913-8.163-4.053-7.708-3.916-7.301-3.757-6.984-3.588-6.681-3.468-6.398-3.512-6.115-3.557-5.825-3.42-5.509-3.123-5.543-2.816-5.571-2.55-5.991-2.682-6.384-2.816-6.784-2.764-6.984-2.579-7.135-2.385-7.287-2.292-7.397-2.309-7.722-2.337-8.046-2.244-8.335-1.992-7.756-1.634-6.936-2.068-6.371-1.827-6.06-1.586-5.743-1.778-5.598-1.903-5.474-2.019-5.343-1.93-5.026-1.634-5.288-1.413-5.481-1.261-5.695-1.307-5.943-1.358-6.198-1.227-6.447-1.082-6.57-.937-6.708-.71-6.818-.758-6.281-.813-5.743-.71-4.868-.5-4.467-.286-4.075-.331-3.736-.461-3.509-.606-3.268-.71-3.068-.538-2.524-.362-1.979-.223-1.289 .289-.683 .814-.055 .393-.152 0 0" fill="#109755"/>
<path transform="matrix(1,0,0,-1,401.7604,209.54773)" d="M0 0C-.055 .31-.296 .503-.476 .262-.659 .048-.486 .014-.318-.138-.149-.289 .076-.428 0 0" fill="#ffffff"/>
<path transform="matrix(1,0,0,-1,401.2742,210.5888)" d="M0 0C-.234 .214-.496 .421-.837 .407-1.183 .386-1.458 .283-1.3 .055-1.058-.289-.534-.152-.383-.407-.248-.269-.052-.18 0 0" fill="#ffffff"/>
<path transform="matrix(1,0,0,-1,401.7054,210.97483)" d="M0 0C-.125-.062-.325-.172-.393-.297-.173-.503 .303-1.041 .434-1.262 .641-1.213 .754-1.131 .848-1.041 .703-.717 .399-.269 0 0" fill="#ffffff"/>
<path transform="matrix(1,0,0,-1,401.1497,213.49121)" d="M0 0C-.199-.062-.665-.289-.837-.386-.865-.572-.872-.786-.872-.959-.61-.979-.272-.897-.062-.827 .052-.483 .19-.166 0 0" fill="#ffffff"/>
<path transform="matrix(1,0,0,-1,400.7021,213.0364)" d="M0 0C-.155-.076-.376-.152-.514-.207-.582-.014-.818 .255-.955 .427-1.096 .593-.748 .965-.472 .676-.19 .379-.08 .165 0 0" fill="#ffffff"/>
<path transform="matrix(1,0,0,-1,397.5755,208.70682)" d="M0 0C.324-.289 .255-.517 .476-.807 .351-1.014 .21-1.269 .048-1.461-.393-1.392-.332-.738-.551-.593-.411-.372-.262-.207 0 0" fill="#ffffff"/>
<path transform="matrix(1,0,0,-1,398.4577,210.02362)" d="M0 0C-.186-.173-.348-.331-.423-.435-.365-.724-.159-.765 .09-.813 .348-.862 .606-.772 .483-.483 .358-.186 .234-.041 0 0" fill="#ffffff"/>
<path transform="matrix(1,0,0,-1,393.6801,208.96183)" d="M0 0C-.214-.152-.214-.407-.365-.531-.097-.717-.069-.855-.048-1.075-.031-1.303 .379-1.806 .875-1.999 1.372-2.206 1.262-2.006 1.075-1.648 .903-1.296 .731-1.027 .71-.752 .683-.469 .43-.124 0 0" fill="#ffffff"/>
<path transform="matrix(1,0,0,-1,396.5826,211.7127)" d="M0 0C-.18 .138-.303 .2-.448 0-.589-.207-.479-.248-.31-.379-.155-.503 .034-.531 .137-.393 .245-.255 .183-.138 0 0" fill="#ffffff"/>
<path transform="matrix(1,0,0,-1,397.1959,212.49863)" d="M0 0C-.069 .186-.196 .131-.293 .069-.382 .007-.441-.034-.396-.172-.338-.331-.296-.338-.137-.234 .007-.131 .034-.11 0 0" fill="#ffffff"/>
<path transform="matrix(1,0,0,-1,397.1822,213.10553)" d="M0 0C-.228-.076-.231-.041-.199-.255-.168-.469-.124-.538 .097-.462 .325-.406 .4-.386 .338-.151 .269 .09 .173 .062 0 0" fill="#ffffff"/>
<path transform="matrix(1,0,0,-1,397.2723,214.00821)" d="M0 0C-.21 0-.393 .034-.431-.255-.455-.545-.373-.531-.104-.524 .179-.517 .303-.49 .296-.276 .296-.062 .255 0 0 0" fill="#ffffff"/>
<path transform="matrix(1,0,0,-1,397.4888,214.93253)" d="M0 0C-.103-.021-.417-.034-.527-.034-.541-.158-.562-.317-.6-.441-.648-.565-.382-.641-.203-.524-.027-.42 .221-.131 0 0" fill="#ffffff"/>
<path transform="matrix(1,0,0,-1,400.9641,214.98752)" d="M0 0C-.138-.007-.604-.041-.748-.041-.734-.358-.7-.613-.624-.807-.538-1-.356-1.303-.342-1.475-.328-1.648-.121-1.675 .031-1.331 .168-.993 .155-.82 .093-.655 .038-.483 .196-.117 0 0" fill="#ffffff"/>
<path transform="matrix(1,0,0,-1,399.7126,216.63501)" d="M0 0C-.041 .213-.259 .269-.344 .083-.431-.09-.317-.248-.193-.241-.058-.221 .017-.207 0 0" fill="#ffffff"/>
<path transform="matrix(1,0,0,-1,399.9196,217.06961)" d="M0 0C-.114-.055-.317-.152-.414-.179-.531-.386-.31-.483-.421-.696-.531-.91-.317-.972-.152-.951 .041-.924 .144-.924 .096-.786-.007-.49 .228-.193 0 0" fill="#ffffff"/>
<path transform="matrix(1,0,0,-1,402.9114,212.54673)" d="M0 0C-.082-.062-.262-.234-.358-.269-.421-.441-.428-.793-.214-.821 0-.848 .096-.855 .135-.676 .183-.497 .383-.076 0 0" fill="#ffffff"/>
<path transform="matrix(1,0,0,-1,402.9733,213.87772)" d="M0 0C-.158 .062-.192-.041-.241-.213-.279-.372-.11-.427 .007-.379 .121-.324 .245-.083 0 0" fill="#ffffff"/>
<path transform="matrix(1,0,0,-1,392.6185,212.26413)" d="M0 0C-.07-.138-.193-.269-.38-.297-.565-.331-.604-.441-.621-.566-.638-.696-.848-1.069-.503-1.006-.152-.965 .296-.559 .269-.386 .245-.207 .221-.131 .289-.021 .372 .09 .137 .269 0 0" fill="#ffffff"/>
<path transform="matrix(1,0,0,-1,397.0138,221.1441)" d="M0 0C-.335-.028-1.065 .035-1.248 .179-1.19 .496-1.231 1.041-1.065 1.145-.724 1.151-.417 1.138-.2 1.124-.031 .834 .168 .345 0 0" fill="#ffffff"/>
<path transform="matrix(1,0,0,-1,396.8995,219.29651)" d="M0 0C-.224-.062-.772-.117-.958-.117-1.106 .186-1.179 1.007-1.372 1.227-1.124 1.289-.82 1.4-.641 1.386-.469 .91 .038 .579 0 0" fill="#ffffff"/>
<path transform="matrix(1,0,0,-1,154.7737,238.29022)" d="M0 0C2.949-1.158 5.9-2.323 8.849-3.481 25.266 16.209 19.185 44.772 35.607 64.462 32.653 65.627 29.708 66.792 26.762 67.95 6.251 49.86 20.506 18.084 0 0" fill="#e63132"/>
<path transform="matrix(1,0,0,-1,186.3341,250.7207)" d="M0 0C2.349-.924 4.704-1.848 7.058-2.778 27.558 15.312 13.311 47.081 33.811 65.172 30.599 66.44 27.377 67.709 24.156 68.978 7.741 49.281 16.422 19.697 0 0" fill="#0a9d49"/>
<path transform="matrix(1,0,0,-1,163.6223,241.7716)" d="M0 0C7.573-2.985 15.14-5.964 22.712-8.949 39.134 10.748 30.452 40.332 46.867 60.028 40.168 62.669 33.458 65.302 26.759 67.943 10.337 48.253 16.417 19.69 0 0" fill="#ffffff"/>
<path transform="matrix(1,0,0,-1,177.7818,209.14102)" d="M0 0 5.308-1.255 1.572 2.71 6.27-.048 3.869 4.847 7.547 .813 6.689 6.205 9.02 1.268 9.797 6.667 10.558 1.261 12.885 6.198 12.032 .813 15.716 4.833 13.294-.062 18.008 2.696 14.266-1.276 19.571-.021 14.819-2.703 20.262-3.075 14.938-4.24 20.033-6.205 14.59-5.743 18.88-9.121 13.819-7.073 16.917-11.569 12.686-8.115 14.333-13.32 11.303-8.79 11.336-14.244 9.767-9.018 8.206-14.237 8.252-8.783 5.203-13.32 6.861-8.115 2.62-11.541 5.736-7.067 .667-9.093 4.974-5.736-.472-6.177 4.621-4.226-.696-3.054 4.741-2.689Z" fill="#eebc29"/>
</g>
<text fill="#fbb040" xml:space="preserve" transform="matrix(1 0 -0 1 0 566.929)" font-size="26.8394" font-family="Montserrat" font-weight="bold"><tspan y="-181.2197" x="98.625 118.029888 140.68235 159.97988 179.59947 196.18622 204.98955 227.642 249.32823 269.8872 286.0982 293.69377 315.38 324.18333 344.8765 366.56275 383.68629 403.35957 425.0458 447.69828 470.35075">VOCATIONAL HIGHSCHOOL</tspan></text>
</g>
</svg>
